<svg width="500" height="500" viewBox="0 0 500 500" fill="none" xmlns="http://www.w3.org/2000/svg">
<g clip-path="url(#clip0_6_7)">
<path d="M456.284 386.996L200.636 239.436C196.396 236.988 189.471 236.993 185.233 239.437L40.8189 322.622C35.0709 325.935 35.0639 331.371 40.8059 334.686L294.62 481.188C298.356 483.345 304.469 483.345 308.209 481.18L456.283 395.89C460.521 393.446 460.524 389.444 456.284 386.996Z" fill="#EBEBEB"/>
<path d="M179.292 449.636L112.682 435.586L91.9319 452.105L179.292 449.636Z" fill="#BA68C8"/>
<g opacity="0.15">
<path d="M179.292 449.636L112.682 435.586L91.9319 452.105L179.292 449.636Z" fill="white"/>
</g>
<path d="M179.292 449.636L118.327 428.524L124.126 412.736L179.292 449.636Z" fill="#BA68C8"/>
<g opacity="0.15">
<path d="M179.292 449.636L118.327 428.524L124.126 412.736L179.292 449.636Z" fill="white"/>
</g>
<path d="M118.327 428.524L121.721 437.492L179.292 449.636L118.327 428.524Z" fill="#BA68C8"/>
<g opacity="0.2">
<path d="M118.327 428.524L121.721 437.492L179.292 449.636L118.327 428.524Z" fill="black"/>
</g>
<path d="M110.837 429.755C110.975 429.728 111.103 429.648 111.194 429.519C111.394 429.233 111.341 428.813 111.073 428.581C110.588 428.162 110.109 427.74 109.632 427.315C109.366 427.077 108.988 427.116 108.783 427.399C108.579 427.681 108.628 428.101 108.893 428.337C109.374 428.766 109.859 429.192 110.346 429.616C110.492 429.744 110.671 429.788 110.837 429.755Z" fill="#455A64"/>
<path d="M104.263 423.988C103.353 423.087 102.463 422.174 101.588 421.249C101.343 420.988 101.328 420.567 101.554 420.306C101.778 420.047 102.164 420.047 102.411 420.305C103.274 421.219 104.156 422.123 105.054 423.013C105.308 423.264 105.336 423.686 105.117 423.955C105.028 424.065 104.911 424.132 104.786 424.156C104.607 424.192 104.413 424.137 104.263 423.988ZM97.3259 416.458C96.4969 415.467 95.6869 414.462 94.9009 413.446C94.6789 413.161 94.7039 412.741 94.9549 412.509C95.2039 412.275 95.5889 412.319 95.8089 412.605C96.5849 413.608 97.3829 414.599 98.2019 415.575C98.4329 415.852 98.4239 416.273 98.1829 416.517C98.0979 416.601 97.9969 416.653 97.8919 416.673C97.6929 416.712 97.4769 416.638 97.3259 416.458ZM91.1049 408.197C90.3769 407.114 89.6669 406.009 88.9929 404.912C88.8029 404.602 88.8709 404.19 89.1459 403.991C89.4219 403.793 89.7979 403.885 89.9889 404.195C90.6509 405.276 91.3509 406.365 92.0679 407.432C92.2699 407.734 92.2189 408.149 91.9529 408.36C91.8809 408.419 91.7979 408.456 91.7139 408.472C91.4929 408.515 91.2519 408.415 91.1049 408.197ZM85.7819 399.221C85.1749 398.047 84.5929 396.857 84.0549 395.682C83.9019 395.349 84.0169 394.951 84.3149 394.796C84.6119 394.636 84.9789 394.784 85.1309 395.117C85.6619 396.271 86.2329 397.442 86.8299 398.596C86.9979 398.921 86.8999 399.325 86.6109 399.498C86.5549 399.531 86.4949 399.555 86.4349 399.566C86.1839 399.615 85.9179 399.483 85.7819 399.221ZM81.5329 389.603C81.0779 388.375 80.6449 387.115 80.2469 385.858C80.1349 385.506 80.2999 385.133 80.6159 385.024C80.9219 384.919 81.2779 385.112 81.3889 385.463C81.7799 386.698 82.2049 387.936 82.6519 389.142C82.7789 389.487 82.6329 389.871 82.3239 389.998C82.2899 390.012 82.2549 390.023 82.2199 390.03C81.9389 390.085 81.6469 389.91 81.5329 389.603ZM78.4999 379.484C78.2659 378.476 78.0489 377.46 77.8489 376.437L77.6899 375.598C77.6249 375.237 77.8319 374.898 78.1549 374.835C78.1569 374.835 78.1609 374.834 78.1629 374.834C78.4909 374.775 78.8099 375.022 78.8759 375.385L79.0309 376.206C79.2279 377.212 79.4409 378.211 79.6719 379.201C79.7559 379.561 79.5609 379.916 79.2369 379.994C79.2289 379.996 79.2209 379.997 79.2129 379.999C78.8969 380.06 78.5809 379.834 78.4999 379.484ZM77.4099 369.668C77.0779 369.697 76.7769 369.423 76.7369 369.057C76.5969 367.752 76.4839 366.424 76.3999 365.109C76.3759 364.741 76.6289 364.432 76.9619 364.422C77.2959 364.411 77.5849 364.699 77.6089 365.067C77.6919 366.362 77.8019 367.67 77.9399 368.951C77.9769 369.297 77.7679 369.602 77.4679 369.66C77.4489 369.663 77.4289 369.667 77.4099 369.668ZM76.8229 359.22C76.4879 359.202 76.2209 358.888 76.2259 358.519C76.2419 357.208 76.2929 355.88 76.3779 354.574C76.4019 354.208 76.6889 353.945 77.0259 353.984C77.3599 354.025 77.6109 354.355 77.5879 354.72C77.5039 356.002 77.4539 357.304 77.4379 358.59C77.4349 358.906 77.2309 359.16 76.9609 359.212C76.9159 359.22 76.8689 359.223 76.8229 359.22ZM77.5919 348.851C77.2609 348.774 77.0399 348.421 77.0969 348.061C77.2969 346.779 77.5369 345.484 77.8069 344.213C77.8819 343.856 78.2139 343.653 78.5339 343.745C78.8599 343.842 79.0629 344.209 78.9879 344.564C78.7229 345.81 78.4879 347.079 78.2919 348.336C78.2489 348.611 78.0569 348.811 77.8229 348.856C77.7469 348.87 77.6689 348.868 77.5919 348.851ZM79.8299 338.801C79.5129 338.669 79.3439 338.284 79.4509 337.94C79.8349 336.71 80.2579 335.481 80.7059 334.285C80.8319 333.948 81.1869 333.803 81.4959 333.952C81.8059 334.105 81.9549 334.499 81.8289 334.835C81.3889 336.007 80.9739 337.212 80.5969 338.417C80.5259 338.644 80.3519 338.795 80.1519 338.835C80.0479 338.856 79.9379 338.847 79.8299 338.801Z" fill="#455A64"/>
<path d="M446.273 233.738L409.364 196.815L430.937 238.18L446.273 233.738Z" fill="#BA68C8"/>
<path opacity="0.15" d="M446.273 233.738L409.364 196.815L430.937 238.18L446.273 233.738Z" fill="white"/>
<path d="M409.364 196.815L452.759 229.644L468.094 225.202L409.364 196.815Z" fill="#BA68C8"/>
<path opacity="0.15" d="M409.364 196.815L452.759 229.644L468.094 225.202L409.364 196.815Z" fill="white"/>
<path d="M452.759 229.644L446.575 241.402L446.273 233.738L409.364 196.815L452.759 229.644Z" fill="#BA68C8"/>
<path opacity="0.2" d="M452.759 229.644L446.575 241.402L446.273 233.738L409.364 196.815L452.759 229.644Z" fill="black"/>
<path d="M446.575 241.402L441.161 235.219L446.273 233.738L446.575 241.402Z" fill="#BA68C8"/>
<path opacity="0.2" d="M446.273 233.738L441.161 235.219L442.025 236.205L446.273 233.738Z" fill="black"/>
<path d="M454.009 239.4C453.877 239.399 453.743 239.449 453.634 239.551C453.395 239.778 453.366 240.177 453.571 240.443C453.941 240.922 454.306 241.402 454.668 241.885C454.869 242.156 455.227 242.19 455.47 241.966C455.712 241.743 455.745 241.345 455.544 241.077C455.179 240.589 454.81 240.105 454.438 239.621C454.327 239.475 454.169 239.401 454.009 239.4Z" fill="#455A64"/>
<path d="M459.015 245.971C459.688 246.976 460.342 247.988 460.978 249.008C461.156 249.295 461.091 249.689 460.833 249.888C460.577 250.086 460.22 250.013 460.04 249.728C459.413 248.72 458.765 247.718 458.101 246.725C457.913 246.445 457.966 246.049 458.219 245.841C458.322 245.756 458.443 245.716 458.563 245.716C458.735 245.718 458.905 245.805 459.015 245.971ZM464.028 254.242C464.61 255.315 465.172 256.397 465.709 257.485C465.861 257.79 465.76 258.175 465.483 258.343C465.208 258.513 464.861 258.4 464.71 258.094C464.179 257.02 463.626 255.953 463.051 254.896C462.889 254.597 462.976 254.208 463.245 254.028C463.339 253.966 463.442 253.937 463.544 253.938C463.735 253.938 463.921 254.046 464.028 254.242ZM468.239 263.056C468.71 264.195 469.161 265.351 469.579 266.493C469.697 266.816 469.556 267.185 469.265 267.317C468.972 267.448 468.641 267.293 468.522 266.97C468.112 265.845 467.668 264.706 467.204 263.584C467.073 263.267 467.198 262.892 467.484 262.746C467.562 262.705 467.645 262.686 467.726 262.687C467.94 262.689 468.144 262.826 468.239 263.056ZM471.486 272.362C471.828 273.563 472.144 274.774 472.422 275.962C472.502 276.299 472.32 276.646 472.015 276.733C471.711 276.825 471.399 276.62 471.32 276.283C471.045 275.115 470.735 273.924 470.399 272.744C470.304 272.411 470.471 272.056 470.771 271.951C470.829 271.931 470.889 271.92 470.947 271.921C471.187 271.923 471.409 272.095 471.486 272.362ZM473.618 282.064C473.809 283.286 473.974 284.534 474.107 285.772C474.145 286.119 473.922 286.434 473.609 286.475C473.306 286.515 473.013 286.269 472.976 285.924C472.845 284.708 472.683 283.481 472.496 282.281C472.443 281.938 472.651 281.61 472.96 281.55C472.994 281.543 473.029 281.54 473.063 281.54C473.332 281.542 473.57 281.758 473.618 282.064ZM474.531 292.001C474.559 292.978 474.569 293.96 474.563 294.944L474.553 295.751C474.546 296.098 474.291 296.372 473.979 296.37C473.977 296.37 473.974 296.37 473.971 296.37C473.656 296.363 473.407 296.075 473.414 295.726L473.424 294.937C473.43 293.969 473.42 293.004 473.392 292.044C473.382 291.695 473.628 291.403 473.943 291.391C473.951 291.391 473.958 291.391 473.966 291.391C474.271 291.393 474.521 291.661 474.531 292.001ZM473.7 301.292C474.013 301.327 474.24 301.638 474.208 301.984C474.093 303.218 473.949 304.469 473.78 305.703C473.734 306.048 473.441 306.287 473.131 306.234C472.82 306.182 472.606 305.86 472.653 305.515C472.819 304.301 472.962 303.069 473.074 301.857C473.105 301.53 473.355 301.287 473.644 301.289C473.664 301.289 473.683 301.29 473.7 301.292ZM472.287 311.075C472.594 311.155 472.782 311.496 472.709 311.835C472.449 313.046 472.153 314.266 471.829 315.46C471.738 315.794 471.423 315.984 471.119 315.885C470.817 315.785 470.647 315.432 470.737 315.098C471.055 313.927 471.345 312.731 471.601 311.544C471.663 311.252 471.899 311.055 472.16 311.057C472.201 311.057 472.244 311.064 472.287 311.075ZM469.632 320.531C469.924 320.664 470.062 321.032 469.943 321.355C469.517 322.504 469.053 323.658 468.565 324.784C468.428 325.1 468.083 325.227 467.804 325.081C467.52 324.93 467.401 324.552 467.537 324.238C468.016 323.134 468.471 322.003 468.888 320.876C468.979 320.629 469.195 320.481 469.42 320.482C469.492 320.484 469.564 320.501 469.632 320.531ZM465.678 329.416C465.947 329.597 466.031 329.986 465.867 330.284C465.281 331.351 464.659 332.409 464.02 333.432C463.84 333.72 463.484 333.788 463.227 333.592C462.968 333.393 462.905 332.999 463.084 332.712C463.711 331.71 464.321 330.672 464.895 329.627C465.004 329.43 465.192 329.322 465.386 329.324C465.486 329.325 465.586 329.354 465.678 329.416Z" fill="#455A64"/>
<path d="M198.086 155.754L458.037 359.952C464.562 365.077 463.815 370.511 463.216 375.385C462.617 380.259 459.902 386.929 454.327 390.147L311.614 472.543C306.04 475.762 297.692 475.363 292.969 471.654L33.0161 267.457C28.2931 263.747 27.8361 257.885 28.4351 253.011C29.0341 248.137 31.1511 240.479 36.7261 237.26L179.44 154.864C185.015 151.646 191.507 150.589 198.086 155.754Z" fill="#37474F"/>
<path d="M190.453 162.131L43.7001 246.859L304.775 451.876L301.971 474.698C298.598 474.537 295.331 473.51 292.97 471.655L33.0161 267.457C28.2931 263.747 27.8361 257.886 28.4351 253.011C29.0341 248.137 31.1511 240.479 36.7261 237.261L179.44 154.865C182.922 152.855 187.122 151.462 191.631 152.531L191.544 153.237L190.453 162.131Z" fill="#263238"/>
<path d="M455.485 361.123L195.974 157.272C192.23 154.331 185.563 154.019 181.147 156.565L41.834 237.003C35.844 240.455 35.089 246.553 40.159 250.535L298.051 453.115C301.35 455.706 307.234 455.987 311.133 453.73L454.259 371.1C458.675 368.553 459.229 364.064 455.485 361.123Z" fill="#455A64"/>
<path d="M111.501 311.682C113.362 313.143 114.615 316.404 114.301 318.964C114.149 320.2 113.658 321.039 112.983 321.412C112.506 321.676 110.692 322.76 110.196 323.036C109.475 323.436 108.546 323.308 107.589 322.557L86.9251 306.326C85.0641 304.864 83.8111 301.604 84.1251 299.043C84.2701 297.863 84.7241 297.046 85.3531 296.648C85.8481 296.336 87.7311 295.25 88.2251 294.974C88.9461 294.57 89.8781 294.697 90.8371 295.451L111.501 311.682Z" fill="#455A64"/>
<path d="M108.727 313.284L88.0631 297.053C86.2021 295.591 84.4391 296.482 84.1241 299.043C83.8091 301.604 85.0631 304.864 86.9231 306.326L107.587 322.557C109.448 324.019 111.211 323.128 111.526 320.567C111.842 318.006 110.588 314.746 108.727 313.284Z" fill="#37474F"/>
<path d="M75.3351 283.276C77.1961 284.737 78.4491 287.998 78.1351 290.558C77.9831 291.794 77.4921 292.633 76.8161 293.006C76.3391 293.27 74.5261 294.354 74.0291 294.63C73.3081 295.03 72.3791 294.902 71.4221 294.151L50.7581 277.92C48.8971 276.458 47.6441 273.198 47.9581 270.637C48.1031 269.457 48.5571 268.64 49.1861 268.243C49.6811 267.931 51.5641 266.845 52.0581 266.569C52.7791 266.165 53.7111 266.292 54.6701 267.046L75.3351 283.276Z" fill="#455A64"/>
<path d="M72.5611 284.878L51.8971 268.647C50.0361 267.185 48.2731 268.076 47.9581 270.637C47.6431 273.198 48.8961 276.458 50.7571 277.92L71.4211 294.151C73.2821 295.613 75.0451 294.722 75.3601 292.161C75.6751 289.6 74.4221 286.34 72.5611 284.878Z" fill="#37474F"/>
<path d="M200.693 168.461L443.026 358.82C446.605 361.631 446.087 365.91 441.868 368.336L312.378 443.099C308.169 445.547 301.84 445.246 298.252 442.428L54.1861 250.708C51.2851 248.429 51.0571 245.19 53.3671 242.748C53.5541 242.56 53.7241 242.375 53.9191 242.193C54.3431 241.841 54.8271 241.503 55.3531 241.199L91.7751 220.169C91.7751 220.169 92.8351 219.552 94.1511 218.8C95.4581 218.041 97.4201 218.132 98.5351 219.008C99.6431 219.878 101.687 219.937 103.084 219.122L145.533 194.617C146.922 193.812 147.172 192.446 146.066 191.576C145.027 190.76 145.097 189.54 146.178 188.763C146.252 188.709 146.334 188.662 146.416 188.615L182.049 168.049L182.805 167.607C188.139 164.53 196.179 164.916 200.693 168.461Z" fill="black"/>
<path d="M97.8142 224.87C96.6982 223.994 94.7372 223.903 93.4302 224.662C92.1142 225.414 91.0542 226.032 91.0542 226.032L54.6322 247.062C54.1062 247.366 53.6232 247.704 53.1982 248.056C53.0032 248.238 52.8332 248.423 52.6472 248.611C52.5872 248.674 52.5482 248.744 52.4912 248.809C52.8852 249.486 53.4472 250.129 54.1862 250.71L298.252 442.43C301.84 445.248 308.169 445.549 312.378 443.101L441.868 368.338C442.745 367.834 443.453 367.246 444.006 366.611C443.612 365.925 443.054 365.271 442.305 364.683L199.973 174.323C195.459 170.777 187.419 170.392 182.083 173.47L181.327 173.912L146.631 193.937C146.631 193.937 146.091 198.381 146.025 198.907C145.953 199.483 145.538 200.058 144.811 200.479L102.362 224.984C100.965 225.799 98.9212 225.739 97.8142 224.87Z" fill="#EBEBEB"/>
<path d="M88.736 244.828C88.684 244.822 88.629 244.795 88.574 244.744L88.057 244.269L86.443 245.202C86.354 245.253 86.274 245.245 86.2 245.177L86.015 245.006C85.973 244.968 85.945 244.934 85.932 244.908C85.92 244.881 85.911 244.845 85.905 244.799L85.77 242.105C85.768 242.056 85.772 242.02 85.784 241.995C85.795 241.97 85.826 241.943 85.877 241.913L86.102 241.784C86.169 241.744 86.231 241.728 86.29 241.736C86.347 241.743 86.405 241.774 86.463 241.826L88.27 243.487L88.626 243.281C88.695 243.242 88.754 243.226 88.806 243.234C88.86 243.243 88.915 243.273 88.972 243.325L89.095 243.438C89.15 243.488 89.175 243.532 89.171 243.57C89.169 243.608 89.134 243.647 89.065 243.686L88.709 243.892L89.226 244.367C89.281 244.417 89.306 244.462 89.301 244.5C89.295 244.539 89.258 244.579 89.188 244.62L88.916 244.776C88.849 244.817 88.79 244.834 88.736 244.828ZM87.724 243.802L86.436 242.618L86.553 244.479L87.724 243.802Z" fill="#455A64"/>
<path d="M90.341 243.434C89.746 243.361 89.19 243.086 88.673 242.611C88.158 242.138 87.92 241.681 87.958 241.241C87.996 240.8 88.302 240.414 88.876 240.083C89.106 239.949 89.343 239.844 89.587 239.768C89.829 239.691 90.056 239.65 90.267 239.646C90.315 239.645 90.35 239.654 90.372 239.674C90.387 239.687 90.399 239.708 90.406 239.735L90.485 240.029C90.491 240.066 90.486 240.091 90.465 240.103C90.454 240.109 90.424 240.114 90.376 240.12C90.03 240.148 89.697 240.254 89.378 240.438C88.991 240.662 88.783 240.927 88.757 241.234C88.733 241.541 88.918 241.876 89.314 242.241C89.713 242.609 90.118 242.82 90.525 242.873C90.932 242.928 91.322 242.847 91.696 242.631C91.832 242.553 91.954 242.468 92.064 242.375C92.173 242.282 92.251 242.196 92.297 242.115L91.457 241.343L90.784 241.731C90.716 241.771 90.656 241.786 90.603 241.778C90.549 241.77 90.495 241.74 90.437 241.687L90.319 241.579C90.262 241.526 90.235 241.481 90.241 241.445C90.245 241.408 90.281 241.371 90.349 241.331L91.424 240.711C91.499 240.668 91.569 240.652 91.633 240.663C91.697 240.673 91.762 240.709 91.829 240.771L93.027 241.873C93.072 241.914 93.101 241.949 93.113 241.976C93.127 242.002 93.124 242.034 93.109 242.07C92.972 242.412 92.635 242.737 92.098 243.047C91.52 243.378 90.935 243.508 90.341 243.434Z" fill="#455A64"/>
<path d="M103.758 235.401C104.157 235.768 104.061 236.308 103.544 236.607C103.027 236.906 102.283 236.851 101.884 236.483C101.485 236.116 101.581 235.576 102.098 235.277C102.616 234.979 103.359 235.034 103.758 235.401Z" fill="#455A64"/>
<path d="M100.915 234.19C99.971 234.735 99.559 235.584 99.743 236.376C99.78 236.537 99.975 236.651 100.201 236.648H100.204C100.489 236.644 100.712 236.456 100.663 236.254C100.528 235.695 100.819 235.096 101.483 234.712C102.148 234.328 103.016 234.259 103.73 234.483C103.99 234.565 104.294 234.449 104.364 234.247L104.365 234.245C104.42 234.086 104.311 233.922 104.106 233.859C103.088 233.547 101.859 233.645 100.915 234.19Z" fill="#455A64"/>
<path d="M99.757 233.126C98.354 233.936 97.684 235.17 97.829 236.362C97.85 236.537 98.045 236.672 98.289 236.669H98.293C98.569 236.666 98.782 236.49 98.757 236.291C98.632 235.319 99.177 234.31 100.324 233.648C101.471 232.986 102.946 232.828 104.218 233.139C104.477 233.202 104.761 233.092 104.828 232.897C104.887 232.725 104.753 232.556 104.524 232.501C102.971 232.122 101.164 232.314 99.757 233.126Z" fill="#455A64"/>
<path d="M71.2851 255.48L70.2881 254.563L72.0111 253.569L73.0081 254.485L71.2851 255.48Z" fill="#455A64"/>
<path d="M73.8702 253.988L71.8772 252.155L73.5992 251.16L75.5932 252.993L73.8702 253.988Z" fill="#455A64"/>
<path d="M76.4551 252.495L73.4641 249.746L75.1871 248.752L78.1781 251.501L76.4551 252.495Z" fill="#455A64"/>
<path d="M79.039 251.003L75.051 247.337L76.775 246.342L80.762 250.008L79.039 251.003Z" fill="#455A64"/>
<path d="M183.963 185.63C183.594 185.564 183.266 185.601 183.035 185.734L176.593 189.442C176.175 189.683 176.184 190.18 176.613 190.574L178.425 192.24C178.664 192.459 178.998 192.617 179.364 192.684C179.521 192.713 179.673 192.722 179.817 192.712C180.002 192.699 180.162 192.654 180.292 192.579L186.734 188.871C187.151 188.63 187.143 188.133 186.714 187.739L184.902 186.073C184.663 185.855 184.33 185.697 183.963 185.63ZM179.358 192.415C179.225 192.391 179.079 192.314 178.96 192.204L177.148 190.538C176.832 190.248 176.825 189.853 177.132 189.676L183.574 185.968C183.649 185.925 183.736 185.898 183.824 185.892C183.872 185.889 183.92 185.891 183.968 185.9C184.102 185.924 184.247 186.001 184.366 186.111L186.178 187.777C186.495 188.068 186.502 188.463 186.195 188.64L179.753 192.348C179.635 192.416 179.495 192.44 179.358 192.415Z" fill="#455A64"/>
<path d="M178.668 189.26L180.812 191.231L179.799 191.813C179.712 191.863 179.539 191.869 179.489 191.823L177.895 190.358C177.666 190.148 177.661 189.848 177.879 189.717L178.668 189.26Z" fill="#455A64"/>
<path d="M179.142 188.994L180.348 188.294L182.492 190.265L181.28 190.96L179.142 188.994Z" fill="#455A64"/>
<path d="M180.823 188.029L182.028 187.329L184.179 189.306L182.967 190L180.823 188.029Z" fill="#455A64"/>
<path d="M183.85 186.495L185.395 187.915C185.679 188.176 185.547 188.517 185.054 188.801L184.647 189.036L182.503 187.065L183.465 186.51C183.577 186.446 183.789 186.438 183.85 186.495Z" fill="#455A64"/>
<path d="M185.154 185.947C185.331 185.843 185.776 186.036 186.148 186.378L186.485 186.688C186.857 187.03 187.02 187.398 186.848 187.511L186.537 187.714L184.833 186.136C184.833 186.136 184.977 186.051 185.154 185.947Z" fill="#455A64"/>
<path d="M167.282 196.622L172.567 192.116L174.157 196.467L171.284 195.19L167.282 196.622Z" fill="#455A64"/>
<path d="M102.76 210.085L122.218 198.851C123.379 198.181 125.068 198.225 125.991 198.949C126.914 199.674 126.721 200.805 125.56 201.475L106.102 212.709C104.941 213.379 103.252 213.335 102.329 212.61C101.406 211.887 101.599 210.756 102.76 210.085Z" fill="#263238"/>
<path d="M131.525 192.555C132.833 191.8 134.791 191.894 135.899 192.764C137.007 193.634 136.845 194.952 135.537 195.707C134.23 196.462 132.271 196.369 131.163 195.498C130.055 194.627 130.217 193.31 131.525 192.555Z" fill="#263238"/>
<path d="M159.59 229.069L159.568 229.082L157.27 227.277C156.452 226.634 155.106 226.504 154.269 226.987L151.451 228.614C150.614 229.097 150.599 230.012 151.418 230.656L153.716 232.461L153.694 232.473C153.055 232.842 153.043 233.54 153.669 234.032L158.304 237.673C158.93 238.165 159.956 238.264 160.595 237.894L166.491 234.49C167.13 234.121 167.142 233.423 166.516 232.931L161.881 229.29C161.255 228.799 160.23 228.7 159.59 229.069ZM152.072 230.278C151.606 229.912 151.615 229.391 152.091 229.117L154.909 227.49C155.385 227.215 156.151 227.289 156.616 227.655L158.914 229.46L154.37 232.084L152.072 230.278Z" fill="#455A64"/>
<path d="M176.471 287.947C176.97 288.339 176.923 288.704 176.336 289.043L175.574 289.483C174.987 289.822 174.446 289.798 173.945 289.405L153.718 273.516L151.226 281.335C151.042 281.845 150.582 282.047 149.851 281.945L148.933 281.827C148.594 281.777 148.342 281.669 148.175 281.502C148.009 281.335 147.963 281.136 148.043 280.908L151.01 271.607C151.084 271.411 151.191 271.258 151.327 271.148C151.465 271.036 151.628 270.928 151.814 270.82L152.576 270.38C153.163 270.041 153.706 270.067 154.205 270.458L176.471 287.947Z" fill="#455A64"/>
<path d="M165.906 271.844C165.163 271.225 164.548 270.485 164.057 269.628C163.568 268.771 163.33 267.865 163.349 266.914C163.366 265.963 163.701 265 164.357 264.021C165.009 263.042 166.099 262.114 167.621 261.235C169.145 260.355 170.632 259.76 172.082 259.443C173.538 259.13 174.921 259.026 176.236 259.129C177.55 259.234 178.779 259.525 179.924 260.007C181.068 260.486 182.08 261.073 182.963 261.766C184.366 262.868 185.249 264.053 185.614 265.324C185.98 266.593 186.005 268.106 185.69 269.859L184.395 281.616L197.816 273.869C198.429 273.514 198.998 273.541 199.517 273.95L200.026 274.35C200.525 274.74 200.466 275.113 199.852 275.468L183.426 284.952C182.838 285.29 182.296 285.265 181.798 284.874L181.289 284.474C181.063 284.296 180.915 284.08 180.847 283.825C180.778 283.574 180.785 283.223 180.865 282.775L182.449 269.88C182.607 268.984 182.691 268.213 182.698 267.562C182.703 266.912 182.627 266.331 182.464 265.823C182.304 265.315 182.057 264.856 181.722 264.449C181.387 264.04 180.959 263.633 180.44 263.223C178.923 262.033 177.227 261.391 175.355 261.302C173.48 261.215 171.581 261.723 169.657 262.834C167.815 263.897 166.818 265.081 166.671 266.385C166.523 267.688 167.075 268.98 168.334 270.258C168.551 270.503 168.625 270.73 168.549 270.946C168.473 271.157 168.353 271.31 168.194 271.403L167.393 271.866C166.831 272.187 166.335 272.179 165.906 271.844Z" fill="#455A64"/>
<path d="M196.96 259.929C197.186 260.105 197.281 260.3 197.24 260.506C197.203 260.712 197.051 260.893 196.784 261.048L194.861 262.159C194.273 262.497 193.731 262.472 193.233 262.081L191.604 260.8C191.377 260.621 191.272 260.429 191.286 260.222C191.298 260.012 191.438 259.831 191.704 259.679L193.627 258.568C193.896 258.413 194.19 258.344 194.512 258.36C194.832 258.375 195.104 258.471 195.332 258.65L196.96 259.929ZM208.842 269.259C209.069 269.437 209.161 269.63 209.124 269.838C209.085 270.044 208.935 270.225 208.666 270.377L206.743 271.488C206.155 271.826 205.613 271.803 205.114 271.41L203.485 270.132C203.259 269.953 203.151 269.761 203.165 269.551C203.177 269.344 203.316 269.163 203.585 269.008L205.508 267.897C205.774 267.745 206.068 267.676 206.391 267.691C206.712 267.706 206.987 267.802 207.213 267.981L208.842 269.259Z" fill="#455A64"/>
<path d="M207.701 238.556C208.316 238.201 208.883 238.228 209.404 238.637L209.911 239.037C210.048 239.142 210.132 239.255 210.167 239.373C210.2 239.491 210.226 239.61 210.237 239.727L210.167 251.192L210.968 250.73C212.329 249.943 213.715 249.33 215.119 248.887C216.525 248.447 217.909 248.211 219.265 248.184C220.621 248.157 221.944 248.35 223.234 248.762C224.523 249.172 225.731 249.825 226.862 250.712C227.996 251.6 228.755 252.526 229.145 253.488C229.537 254.45 229.603 255.412 229.348 256.377C229.093 257.342 228.536 258.288 227.677 259.215C226.819 260.142 225.71 260.999 224.349 261.786C222.852 262.649 221.352 263.293 219.848 263.713C218.346 264.133 216.915 264.367 215.56 264.409C214.2 264.454 212.955 264.331 211.826 264.043C210.693 263.756 209.742 263.327 208.969 262.755C208.766 262.595 208.687 262.424 208.734 262.243C208.781 262.062 208.924 261.901 209.165 261.763L209.725 261.439C209.94 261.315 210.193 261.233 210.483 261.187C210.774 261.143 211.144 261.223 211.589 261.428C212.55 261.892 213.507 262.163 214.464 262.24C215.425 262.322 216.366 262.277 217.292 262.114C218.218 261.95 219.105 261.691 219.954 261.34C220.803 260.987 221.59 260.604 222.313 260.187C223.354 259.586 224.2 258.958 224.85 258.305C225.502 257.652 225.93 256.979 226.14 256.288C226.35 255.598 226.312 254.904 226.024 254.203C225.738 253.505 225.176 252.828 224.338 252.171C222.664 250.855 220.871 250.257 218.957 250.374C217.045 250.493 215.059 251.142 213.004 252.33L209.478 254.366C208.89 254.704 208.348 254.679 207.851 254.288L207.342 253.888C207.16 253.745 207.041 253.608 206.983 253.471C206.927 253.334 206.894 253.192 206.888 253.04L206.894 241.798L194.794 248.783C194.207 249.121 193.664 249.095 193.165 248.705L192.656 248.305C192.136 247.896 192.171 247.522 192.757 247.183L207.701 238.556Z" fill="#455A64"/>
<path d="M246.78 247.355C247.276 247.748 247.232 248.112 246.645 248.451L245.883 248.891C245.295 249.229 244.753 249.204 244.254 248.813L224.025 232.923L221.536 240.74C221.353 241.25 220.892 241.453 220.16 241.351L219.242 241.234C218.903 241.184 218.65 241.076 218.482 240.907C218.318 240.743 218.271 240.544 218.351 240.315L221.318 231.014C221.392 230.819 221.497 230.665 221.635 230.555C221.773 230.443 221.936 230.334 222.122 230.227L222.884 229.787C223.47 229.448 224.014 229.474 224.511 229.865L246.78 247.355Z" fill="#455A64"/>
<path d="M180.059 319.374L282.784 260.064C285.55 258.467 289.691 258.665 292.034 260.505L315.39 278.851C317.733 280.691 317.391 283.478 314.625 285.075L211.898 344.384C209.132 345.981 204.991 345.783 202.647 343.943L179.292 325.598C176.951 323.758 177.293 320.971 180.059 319.374Z" fill="white"/>
<path d="M222.143 352.437L324.868 293.127C327.634 291.53 331.775 291.728 334.119 293.568L357.475 311.913C359.818 313.754 359.476 316.54 356.71 318.137L253.983 377.446C251.217 379.043 247.076 378.845 244.732 377.005L221.377 358.661C219.035 356.82 219.377 354.034 222.143 352.437Z" fill="white"/>
<path d="M264.227 385.5L366.952 326.19C369.718 324.593 373.859 324.791 376.203 326.631L399.559 344.976C401.902 346.817 401.56 349.603 398.794 351.2L296.068 410.51C293.302 412.107 289.161 411.909 286.817 410.069L263.462 391.725C261.119 389.883 261.461 387.097 264.227 385.5Z" fill="white"/>
<path d="M305.993 388.133C305.978 388.132 305.961 388.132 305.943 388.133C303.447 388.23 301.008 387.667 299.392 386.398L296.392 384.041C292.969 381.352 286.919 381.064 282.879 383.396C278.839 385.728 278.339 389.799 281.762 392.487L284.443 394.593C286.129 395.918 286.785 397.69 286.314 399.418L286.865 400.68C287.727 401.357 289.251 401.43 290.269 400.842L307.355 390.977C308.373 390.389 308.499 389.364 307.637 388.687C307.206 388.35 306.609 388.163 305.993 388.133ZM302.968 399.175C304.907 398.055 305.147 396.101 303.504 394.81L296.48 398.865C298.123 400.156 301.028 400.295 302.968 399.175Z" fill="#E0E0E0"/>
<path d="M263.977 354.292C263.962 354.291 263.945 354.291 263.927 354.292C261.431 354.389 258.992 353.826 257.376 352.557L254.376 350.201C250.953 347.512 244.903 347.224 240.863 349.556C236.823 351.888 236.323 355.959 239.746 358.647L242.428 360.753C244.114 362.077 244.77 363.85 244.299 365.578L244.85 366.84C245.712 367.517 247.236 367.59 248.254 367.002L265.34 357.137C266.358 356.549 266.484 355.524 265.622 354.847C265.19 354.509 264.593 354.322 263.977 354.292ZM260.952 365.334C262.891 364.214 263.131 362.26 261.488 360.969L254.464 365.024C256.107 366.315 259.012 366.454 260.952 365.334Z" fill="#E0E0E0"/>
<g opacity="0.3">
<path d="M300.297 246.695L269.349 222.387L219.866 380.843L250.813 405.151L300.297 246.695Z" fill="white"/>
<path d="M393.735 326.527L341.283 285.325L293.41 438.625L298.252 442.428C301.84 445.246 308.169 445.547 312.378 443.099L367.22 411.435L393.735 326.527Z" fill="white"/>
<path d="M191.708 358.725L241.191 200.27L200.694 168.461C196.18 164.915 188.14 164.53 182.804 167.608L182.048 168.05L160.581 180.44L122.003 303.975L191.708 358.725Z" fill="white"/>
</g>
<path opacity="0.2" d="M272.82 354.637C310.028 354.637 340.191 338.826 340.191 319.323C340.191 299.819 310.028 284.009 272.82 284.009C235.612 284.009 205.449 299.819 205.449 319.323C205.449 338.826 235.612 354.637 272.82 354.637Z" fill="black"/>
<path d="M302.243 338.976C302.243 338.976 323.192 331.427 330.022 320.355C329.393 308.087 328.207 286.058 328.028 286.205L288.545 290.293L296.888 324.907L302.243 338.976Z" fill="#37474F"/>
<path d="M317.64 317.33C321.342 310.917 324.559 295.531 324.57 290.297H217.757C217.757 290.297 215.77 313.376 215.935 322.657C215.935 322.696 215.945 322.726 215.945 322.765C215.946 322.771 215.95 322.777 215.951 322.783C218.18 328.288 223.428 331.672 235.392 336.862C257.532 346.455 287.574 344.991 302.246 338.978V334.087C302.246 334.087 313.938 323.743 317.64 317.33Z" fill="#455A64"/>
<path d="M345.069 185.922C362.465 201.102 365.664 204.202 365.664 204.202C370.454 184.275 374.412 170.337 375.016 161.877C375.619 153.417 386.555 134.888 386.555 134.888C395.272 137.143 402.115 150.835 397.701 164.841C394.491 175.026 400.56 199.803 394.318 232.61C391.053 249.767 381.549 253.831 363.109 243.421C350.187 236.126 326.858 219.244 326.858 219.244L309.152 160.344C323.975 163.035 328.123 171.134 345.069 185.922Z" fill="#FFA8A7"/>
<path d="M312.044 160.125C320.459 161.783 326.246 166.078 335.86 175.678C345.474 185.277 365.798 203.643 365.798 203.643C365.798 203.643 360.755 216.148 364.899 232.054C368.503 245.89 374.067 248.22 374.067 248.22C374.067 248.22 369.684 249.492 358.029 242.005C346.374 234.518 320.57 216.018 320.57 216.018L312.044 160.125Z" fill="#455A64"/>
<path d="M366.765 199.662C366.765 199.662 364.732 231.43 374.498 240.277C384.264 249.123 390.461 243.3 390.461 243.3C390.461 243.3 389.95 252.326 384.033 252.031C378.116 251.736 377.19 252.196 373.714 252.09C370.238 251.984 364.772 251.497 362.303 244.55C355.023 230.477 357.699 212.013 362.764 200.888C364.489 201.733 364.476 199.304 366.765 199.662Z" fill="#37474F"/>
<path d="M411.612 135.732C411.384 141.436 409.156 145.32 407.999 148.247C403.502 159.625 400.97 158.284 396.505 167.034L387.07 142.639C382.958 135.431 386.199 132.229 392.551 130.721L411.612 135.732Z" fill="#F28F8F"/>
<path d="M356.095 125.853C362.435 130.094 371.013 128.391 375.253 122.051C379.493 115.71 377.791 107.133 371.45 102.892C365.11 98.6517 356.532 100.354 352.292 106.695C348.052 113.035 349.754 121.613 356.095 125.853Z" fill="#455A64"/>
<path d="M361.382 121.086C363.983 119.805 370.73 116.481 377.525 113.133C377.801 116.17 377.08 119.318 375.253 122.05C371.013 128.39 362.435 130.093 356.095 125.852C353.717 124.262 351.991 122.062 350.987 119.598C353.229 122.582 356.192 123.642 361.382 121.086Z" fill="#37474F"/>
<path d="M373.206 117.416L373.932 106.326C381.522 114.957 394.458 125.597 405.041 131.76L404.749 136.195C397.384 133.981 384.63 126.059 373.206 117.416Z" fill="#37474F"/>
<path d="M366.625 127.089L373.174 126.589L385.798 134.909C391.451 138.634 398.644 139.123 404.748 136.196C396.19 133.242 383.673 125.188 373.206 117.417L366.625 127.089Z" fill="#455A64"/>
<path d="M388.06 126.022C388.053 126.133 388.046 126.243 388.039 126.348C388.004 126.87 387.596 127.481 387.126 127.713L384.843 128.837C384.373 129.069 384.345 129.492 384.781 129.783L385.049 129.962C385.484 130.253 386.218 130.301 386.687 130.071L389.009 128.93C389.478 128.699 389.881 128.088 389.907 127.565L389.923 127.258C389.95 126.735 389.618 126.075 389.183 125.785L388.911 125.603C388.475 125.312 388.095 125.5 388.06 126.022Z" fill="#BA68C8"/>
<path d="M392.368 128.488C392.361 128.599 392.354 128.709 392.346 128.814C392.312 129.336 391.903 129.947 391.434 130.178L389.151 131.303C388.682 131.535 388.654 131.958 389.089 132.249L389.357 132.428C389.792 132.719 390.525 132.768 390.995 132.537L393.316 131.396C393.786 131.165 394.188 130.554 394.214 130.032L394.23 129.724C394.256 129.202 393.925 128.542 393.49 128.251L393.218 128.069C392.783 127.778 392.403 127.966 392.368 128.488Z" fill="#BA68C8"/>
<path d="M396.677 130.954C396.67 131.065 396.663 131.175 396.656 131.281C396.621 131.803 396.213 132.414 395.743 132.645L393.46 133.77C392.991 134.001 392.963 134.424 393.397 134.715L393.665 134.895C394.1 135.186 394.834 135.235 395.303 135.004L397.624 133.863C398.094 133.632 398.496 133.022 398.522 132.499L398.538 132.191C398.564 131.668 398.233 131.009 397.798 130.718L397.526 130.536C397.092 130.245 396.711 130.432 396.677 130.954Z" fill="#BA68C8"/>
<path d="M366.871 94.792L366.873 94.799C364.963 95.745 363.616 97.836 363.203 100.883C363.156 101.2 363.123 101.531 363.099 101.874C363.073 102.279 363.061 102.681 363.068 103.096C363.074 103.778 363.119 104.469 363.207 105.172C363.359 106.454 363.639 107.758 364.03 109.056C365.084 112.542 366.932 115.967 369.253 118.676C370.426 120.042 371.716 121.224 373.09 122.143C376.008 124.095 378.753 124.483 380.849 123.53L373.65 127.083L373.643 127.067C371.008 128.229 367.786 128.086 364.915 126.166C363.603 125.289 362.363 124.169 361.236 122.879C358.841 120.144 356.935 116.645 355.858 113.081C355.467 111.782 355.184 110.475 355.036 109.196C354.948 108.493 354.899 107.799 354.897 107.12C354.89 106.705 354.901 106.296 354.928 105.898C354.949 105.559 354.989 105.227 355.041 104.902C355.526 101.943 357.255 99.674 359.532 98.426L359.53 98.419L359.729 98.318C359.813 98.278 359.9 98.233 359.988 98.195L366.871 94.792Z" fill="#BA68C8"/>
<path opacity="0.1" d="M373.65 127.084L373.643 127.068C371.008 128.23 367.786 128.087 364.915 126.167C363.603 125.29 362.363 124.17 361.236 122.88L369.252 118.676C370.425 120.042 371.715 121.224 373.089 122.143C376.007 124.095 378.752 124.483 380.848 123.53L373.65 127.084Z" fill="black"/>
<path d="M374.804 96.107C380.794 100.114 385.267 109.186 384.791 116.375C384.556 119.991 383.109 122.444 380.967 123.473C380.93 123.494 380.89 123.512 380.849 123.531C378.753 124.483 376.008 124.095 373.09 122.144C367.1 118.138 362.628 109.066 363.099 101.874C363.337 98.288 364.761 95.843 366.873 94.799C368.99 93.746 371.803 94.1 374.804 96.107Z" fill="#BA68C8"/>
<path opacity="0.2" d="M374.804 96.107C380.794 100.114 385.267 109.186 384.791 116.375C384.556 119.991 383.109 122.444 380.967 123.473C380.93 123.494 380.89 123.512 380.849 123.531C378.753 124.483 376.008 124.095 373.09 122.144C367.1 118.138 362.628 109.066 363.099 101.874C363.337 98.288 364.761 95.843 366.873 94.799C368.99 93.746 371.803 94.1 374.804 96.107Z" fill="black"/>
<path d="M392.512 66.2749C392.512 66.2749 391.038 79.0009 399.642 96.4659C401.332 99.8959 403.117 102.909 404.89 105.532C412.141 116.263 419.234 120.517 419.234 120.517C410.43 118.717 400.921 117.438 391.521 119.629C385.703 120.984 380.683 122.803 380.683 122.803L380.679 122.795C378.743 123.743 376.183 123.341 373.49 121.541C371.717 120.354 370.083 118.709 368.683 116.789C367.792 115.58 366.994 114.262 366.316 112.885C364.566 109.332 363.597 105.393 363.825 101.921C364.039 98.6889 365.279 96.4139 367.211 95.4569L367.207 95.4489C367.207 95.4489 371.708 92.5769 376.328 88.7899C383.793 82.6719 388.574 74.3529 392.512 66.2749Z" fill="#BA68C8"/>
<path opacity="0.6" d="M392.512 66.2749C392.512 66.2749 391.038 79.0009 399.642 96.4659C401.332 99.8959 403.117 102.909 404.89 105.532C412.141 116.263 419.234 120.517 419.234 120.517C410.43 118.717 400.921 117.438 391.521 119.629C385.703 120.984 380.683 122.803 380.683 122.803L380.679 122.795C378.743 123.743 376.183 123.341 373.49 121.541C371.717 120.354 370.083 118.709 368.683 116.789C367.792 115.58 366.994 114.262 366.316 112.885C364.566 109.332 363.597 105.393 363.825 101.921C364.039 98.6889 365.279 96.4139 367.211 95.4569L367.207 95.4489C367.207 95.4489 371.708 92.5769 376.328 88.7899C383.793 82.6719 388.574 74.3529 392.512 66.2749Z" fill="white"/>
<path opacity="0.1" d="M404.89 105.533C412.141 116.264 419.234 120.518 419.234 120.518C410.43 118.718 400.921 117.439 391.521 119.63C385.703 120.985 380.683 122.804 380.683 122.804L380.679 122.796C378.743 123.744 376.183 123.342 373.49 121.542C371.717 120.355 370.083 118.71 368.683 116.79C377.078 112.014 391.477 104.83 404.89 105.533Z" fill="black"/>
<path d="M417.967 57.4668C424.213 61.6448 429.765 68.1388 433.937 75.5628L433.941 75.5658C439.282 85.0768 442.361 96.0968 441.727 105.704C440.597 122.812 428.129 128.952 413.88 119.423C410.619 117.242 407.55 114.432 404.765 111.19C397.911 103.198 392.795 92.5828 390.871 82.3018C390.597 80.8538 390.39 79.4148 390.25 77.9878C390.19 77.3948 390.144 76.7998 390.109 76.2128L390.112 76.2088C390.062 75.3718 390.034 74.5438 390.035 73.7238C390.036 72.8698 390.06 72.0248 390.117 71.1898C391.247 54.0818 403.713 47.9358 417.967 57.4668Z" fill="#BA68C8"/>
<path opacity="0.1" d="M433.941 75.5659C439.282 85.0769 442.361 96.0969 441.727 105.704C440.597 122.812 428.129 128.952 413.88 119.423C410.619 117.242 407.55 114.432 404.765 111.19L404.768 111.186C407.17 111.584 411.807 110.342 410.862 107.767C413.365 110.655 416.092 113.14 418.956 115.055C423.052 117.794 426.968 119.091 430.284 118.811C433.112 118.571 435.403 117.173 437.082 114.654C438.721 112.211 439.721 108.764 439.994 104.7C440.534 96.5279 438.042 87.0179 433.685 78.5409C433.685 78.5409 434.848 78.2079 433.941 75.5659Z" fill="black"/>
<path d="M417.74 59.5278C424.034 63.7368 429.661 70.6978 433.684 78.5408C438.041 87.0178 440.533 96.5278 439.993 104.7C439.721 108.764 438.721 112.211 437.081 114.654C435.402 117.173 433.111 118.571 430.283 118.811C426.967 119.09 423.051 117.794 418.955 115.055C416.092 113.14 413.365 110.655 410.861 107.767C409.914 106.677 409 105.53 408.124 104.334C406.597 102.253 405.173 100.018 403.903 97.6978C403.641 97.2208 403.386 96.7418 403.136 96.2618C402.718 95.4638 402.314 94.6518 401.937 93.8358C400.628 91.0458 399.534 88.1648 398.685 85.2828C398.676 85.2538 398.668 85.2148 398.655 85.1828C398.093 83.2618 397.641 81.3468 397.306 79.4528C397.066 78.0898 396.891 76.7408 396.777 75.4108C396.728 74.8538 396.693 74.2998 396.669 73.7478C396.643 73.0868 396.633 72.4298 396.636 71.7758C396.643 71.1428 396.669 70.5158 396.707 69.8968C396.973 65.8168 397.985 62.3778 399.617 59.9298C403.242 54.5118 410.021 54.3648 417.74 59.5278Z" fill="#BA68C8"/>
<path opacity="0.4" d="M417.74 59.5278C424.034 63.7368 429.661 70.6978 433.684 78.5408C438.041 87.0178 440.533 96.5278 439.993 104.7C439.721 108.764 438.721 112.211 437.081 114.654C435.402 117.173 433.111 118.571 430.283 118.811C426.967 119.09 423.051 117.794 418.955 115.055C416.092 113.14 413.365 110.655 410.861 107.767C409.914 106.677 409 105.53 408.124 104.334C406.597 102.253 405.173 100.018 403.903 97.6978C403.641 97.2208 403.386 96.7418 403.136 96.2618C402.718 95.4638 402.314 94.6518 401.937 93.8358C400.628 91.0458 399.534 88.1648 398.685 85.2828C398.676 85.2538 398.668 85.2148 398.655 85.1828C398.093 83.2618 397.641 81.3468 397.306 79.4528C397.066 78.0898 396.891 76.7408 396.777 75.4108C396.728 74.8538 396.693 74.2998 396.669 73.7478C396.643 73.0868 396.633 72.4298 396.636 71.7758C396.643 71.1428 396.669 70.5158 396.707 69.8968C396.973 65.8168 397.985 62.3778 399.617 59.9298C403.242 54.5118 410.021 54.3648 417.74 59.5278Z" fill="black"/>
<path d="M412.357 79.3198L420.744 95.9548C416.91 98.0208 412.196 100.506 409.013 105.507C408.711 105.123 408.419 104.733 408.128 104.333C406.601 102.252 405.177 100.017 403.908 97.6968C403.645 97.2188 403.39 96.7408 403.141 96.2608C402.723 95.4628 402.319 94.6508 401.942 93.8348C400.633 91.0448 399.539 88.1638 398.69 85.2818C398.681 85.2528 398.673 85.2138 398.66 85.1818C398.538 84.7588 398.417 84.3348 398.306 83.9128C404.307 84.3848 412.357 79.3198 412.357 79.3198Z" fill="#37474F"/>
<path d="M421.666 95.0437C420.554 96.7067 418.547 96.8007 416.298 95.2957L416.229 95.2497C412.693 92.8847 410.044 87.5077 410.324 83.2637L410.329 83.1807C410.404 82.0487 410.691 81.0807 411.16 80.3787C412.272 78.7167 414.279 78.6217 416.528 80.1267L416.597 80.1727C420.133 82.5377 422.782 87.9147 422.502 92.1587L422.497 92.2417C422.422 93.3737 422.135 94.3427 421.666 95.0437Z" fill="#BA68C8"/>
<path d="M390.469 121.661C390.469 121.661 393.298 120.823 394.295 120.607C396.681 120.092 398.449 119.225 400.233 120.98C400.842 121.58 401.197 122.708 401.886 123.189C402.668 123.734 404.234 123.51 405.172 123.711C406.263 123.946 407.294 124.441 407.958 125.371C408.405 125.997 408.534 127.148 409.134 127.524C409.891 127.997 411.18 127.909 412.032 128.28C413.951 129.115 414.489 131.667 415.199 133.416C415.966 135.304 417.249 137.925 416.433 139.948C415.807 141.499 414.625 142.604 413.304 143.611C411.784 144.769 410.122 145.954 408.467 146.919C407.03 147.757 405.504 147.078 404.593 145.898C403.396 144.346 401.116 144.924 399.674 143.571C399.05 142.986 398.864 142.101 398.254 141.5C397.517 140.774 396.884 140.327 396.602 139.283C396.11 137.467 396.993 135.515 397.357 133.755C397.674 132.22 397.28 130.408 396.857 128.905C396.532 127.75 395.997 125.96 394.98 125.169C394.982 125.168 390.483 121.672 390.469 121.661Z" fill="#FFA8A7"/>
<path d="M375.016 161.876C375.257 151.228 374.613 146.646 374.631 141.617C374.652 135.889 378.625 132.643 383.356 128.812C386.924 125.924 388.26 124.586 390.431 122.237C392.198 120.271 393.766 126.343 393.411 128.622C392.983 131.364 390.43 134.492 388.741 136.933C384.893 142.494 400.058 150.251 396.505 167.033C392.97 172.488 375.016 161.876 375.016 161.876Z" fill="#FFA8A7"/>
<path d="M326.348 204.517C325.418 171.27 310.689 162.151 304.885 159.747L281.266 155.035C274.055 155.832 243.347 165.042 234.884 167.135C229.435 168.482 229.695 179.076 226.943 196.539C224.707 210.723 223.464 222.668 222.118 242.439C220.99 259.006 219.662 277.878 222.593 301.323C259.952 312.724 295.803 318.176 323.548 296.889C322.9 292.218 325.726 253.321 325.962 241.848C326.2 230.375 326.6 213.517 326.348 204.517Z" fill="#FAFAFA"/>
<path d="M228.508 167.891L258.414 158.398C258.414 158.398 260.941 166.18 266.518 181.176C272.094 196.172 271.776 205.417 270.111 230.539C268.446 255.66 267.904 309.679 265.51 332.163C254.326 332.683 223.675 323.756 214.524 311.368C214.524 311.368 217.689 265.834 219.12 240.13C220.55 214.426 215.3 173.976 228.508 167.891Z" fill="#BA68C8"/>
<path opacity="0.15" d="M228.508 167.891L258.414 158.398C258.414 158.398 260.941 166.18 266.518 181.176C272.094 196.172 271.776 205.417 270.111 230.539C268.446 255.66 267.904 309.679 265.51 332.163C254.326 332.683 223.675 323.756 214.524 311.368C214.524 311.368 217.689 265.834 219.12 240.13C220.55 214.426 215.3 173.976 228.508 167.891Z" fill="black"/>
<path d="M291.755 159.332C301.533 164.215 307.476 176.117 308.438 191.918C309.4 207.719 312.902 239.327 313.461 251.243C315.891 303.008 318.53 316.92 318.53 316.92C323.393 314.425 329.428 311.458 330.292 304.337C329.199 293.256 328.516 250.908 328.429 241.015C328.342 231.123 327.785 208.26 327.41 196.168C327.035 184.075 324.134 168.837 314.017 160.64C303.578 157.28 292.117 156.639 292.117 156.639L291.755 159.332Z" fill="#BA68C8"/>
<path opacity="0.15" d="M291.755 159.332C301.533 164.215 307.476 176.117 308.438 191.918C309.4 207.719 312.902 239.327 313.461 251.243C315.891 303.008 318.53 316.92 318.53 316.92C323.393 314.425 329.428 311.458 330.292 304.337C329.199 293.256 328.516 250.908 328.429 241.015C328.342 231.123 327.785 208.26 327.41 196.168C327.035 184.075 324.134 168.837 314.017 160.64C303.578 157.28 292.117 156.639 292.117 156.639L291.755 159.332Z" fill="black"/>
<path d="M309.15 201.061C308.819 189.467 304.189 168.356 292.154 163.032C291.563 161.411 291.754 159.331 291.754 159.331L292.415 153.389C292.415 153.389 297.491 155.571 302.526 159.529C307.561 163.487 315.794 175.405 317.36 184.554C312.407 179.493 309.59 186.719 309.15 201.061Z" fill="#BA68C8"/>
<path opacity="0.45" d="M309.15 201.061C308.819 189.467 304.189 168.356 292.154 163.032C291.563 161.411 291.754 159.331 291.754 159.331L292.415 153.389C292.415 153.389 297.491 155.571 302.526 159.529C307.561 163.487 315.794 175.405 317.36 184.554C312.407 179.493 309.59 186.719 309.15 201.061Z" fill="white"/>
<path d="M259.995 146.941C257.872 139.052 249.098 131.442 244.84 124.792C240.734 118.38 238.173 113.346 237.964 106.971C237.84 103.195 239.722 97.883 242.404 96.551C237.858 82.906 247.713 75.436 253.146 73.584C255.23 72.874 258.676 71.755 260.634 70.708C263.536 69.157 263.988 66.66 266.229 64.359C270.086 60.397 277.145 59.645 280.349 64.782C282.798 60.905 286.595 60.638 291.078 61.335C295.351 61.999 297.668 65.349 297.607 69.236C303.145 65.406 308.908 69.026 309.772 72.416C310.409 74.916 310.073 77.108 311.949 79.224C314.063 81.607 317.595 81.228 318.472 79.057C319.42 82.605 318.273 85.486 314.344 85.658C315.877 87.482 316.472 90.009 316.017 92.442C315.399 95.74 312.348 97.934 309.752 98.238C309.525 100.255 309.613 102.076 308.533 103.9C307.493 105.654 306.097 107.427 304.325 108.488C298.674 111.872 292.214 113.411 285.964 115.337C283.491 116.099 281.018 116.861 278.545 117.624C278.113 117.757 275.841 118.113 275.607 118.53C275.607 118.532 259.995 146.941 259.995 146.941Z" fill="#263238"/>
<path d="M249.295 137.493C255.252 140.324 258.726 136.317 258.726 136.317L259.38 150.446L259.703 165.749C259.703 165.749 275.729 182.851 297.431 181.816C298.528 176.943 296.943 168.378 293.445 164.183L292.904 151.666C292.904 151.666 298.684 151.221 302.402 150.335C308.606 148.877 313.448 143.397 314.595 136.418C315.794 129.125 315.205 117.445 312.848 109.063C312.247 106.922 311.862 104.715 311.881 102.491C311.931 96.5849 310.555 93.2819 308.579 88.5139C301.13 83.5969 281.448 84.2979 267.389 94.7859C271.309 102.09 270.035 110.018 263.898 114.014C264.427 116.383 265.301 122.412 261.35 122.674C258.504 122.862 257.976 119.319 254.765 116.459C251.488 113.539 244.669 113.402 242.475 118.278C239.403 125.097 242.769 134.391 249.295 137.493Z" fill="#FFA8A7"/>
<path d="M292.903 151.665C282.819 151.435 275.137 151.07 269.256 144.337C265.567 140.114 262.123 133.086 262.123 133.086C262.123 133.086 263.982 141.822 267.806 147.496C270.753 151.87 277.283 155.127 293.047 154.989L292.903 151.665Z" fill="#F28F8F"/>
<path d="M284.973 112.594C285.104 114.206 283.951 115.612 282.4 115.734C280.847 115.856 279.483 114.647 279.352 113.035C279.221 111.422 280.373 110.017 281.926 109.895C283.478 109.774 284.842 110.982 284.973 112.594Z" fill="#263238"/>
<path d="M282.062 104.426L276.231 108.093C275.244 106.414 275.75 104.232 277.36 103.22C278.971 102.206 281.076 102.747 282.062 104.426Z" fill="#263238"/>
<path d="M308.278 103.308L301.441 102.112C301.702 100.197 303.445 98.9121 305.333 99.2421C307.221 99.5721 308.54 101.392 308.278 103.308Z" fill="#263238"/>
<path d="M307.672 109.708C307.803 111.32 306.651 112.726 305.098 112.847C303.546 112.968 302.182 111.761 302.051 110.148C301.92 108.536 303.073 107.13 304.624 107.008C306.177 106.886 307.542 108.094 307.672 109.708Z" fill="#263238"/>
<path d="M304.979 120.704L295.628 125.966L290.796 107.107C294.3 105.466 299.806 113.821 304.979 120.704Z" fill="#F28F8F"/>
<path d="M286.065 131.427L298.04 132.82C297.735 136.229 294.807 138.68 291.499 138.297C288.192 137.912 285.76 134.836 286.065 131.427Z" fill="#B16668"/>
<path d="M287.665 133.205C287.162 133.198 286.681 133.265 286.213 133.363C286.772 135.927 288.839 137.988 291.498 138.297C292.165 138.374 292.808 138.31 293.426 138.172C293.347 135.452 290.821 133.243 287.665 133.205Z" fill="#F28F8F"/>
<path d="M271.151 205.282C270.452 182.521 261.13 180.486 258.268 187.682C251.212 174.672 251.834 164.109 252.35 159.923C254.939 156.262 255.958 153.965 256.835 152.577C257.996 150.742 259.379 150.446 259.379 150.446L259.652 156.168C259.652 156.168 260.357 162.842 266.321 171.73C270.701 178.256 271.726 186.188 271.151 205.282Z" fill="#BA68C8"/>
<path opacity="0.45" d="M271.151 205.282C270.452 182.521 261.13 180.486 258.268 187.682C251.212 174.672 251.834 164.109 252.35 159.923C254.939 156.262 255.958 153.965 256.835 152.577C257.996 150.742 259.379 150.446 259.379 150.446L259.652 156.168C259.652 156.168 260.357 162.842 266.321 171.73C270.701 178.256 271.726 186.188 271.151 205.282Z" fill="white"/>
<path d="M234.519 165.98C216.373 171.469 208.274 174.499 202.374 186.235C196.474 197.971 186.21 227.039 180.486 244.657C175.581 259.756 172.897 273.508 176.154 280.461L211.49 268.964L230.144 223.294C230.145 223.292 242.266 194.953 234.519 165.98Z" fill="#455A64"/>
<path d="M210.688 255.372C213.268 255.047 215.846 255.449 218.304 254.546C219.472 254.118 220.709 253.474 221.136 252.306C221.687 250.8 220.641 249.195 219.509 248.059C216.419 244.956 212.287 243.012 208.001 242.113C199.455 240.321 191.096 241.872 183.504 245.96C179.07 248.348 173.649 251.587 173.337 257.234C173.243 258.928 173.62 260.679 173.108 262.296C172.766 263.377 172.051 264.304 171.658 265.367C171.305 266.322 171.223 267.353 171.153 268.369C171.068 269.595 171.005 270.873 171.48 272.007C171.785 272.734 172.298 273.36 172.609 274.084C173.076 275.17 173.062 276.399 173.387 277.536C174.052 279.862 176.572 282.542 178.677 280.206C180.587 278.086 181.239 275.194 182.49 272.698C183.938 269.808 186.656 267.592 189.196 265.668C192.615 263.079 196.423 261.055 200.273 259.166C203.234 257.713 206.275 256.327 209.502 255.581C209.897 255.489 210.293 255.422 210.688 255.372Z" fill="#37474F"/>
<path d="M223.861 243.97C220.514 247.975 210.41 249.165 203.3 251.148C196.191 253.131 187.439 256.519 182.579 263.946C178.299 270.484 173.781 275.863 175.913 281C177.382 284.538 185.478 286.425 194.975 286.486C204.472 286.547 212.993 277.905 223.006 271.841C231.593 266.64 235.529 264.221 235.529 264.221L223.861 243.97Z" fill="#F28F8F"/>
<path d="M235.924 249.705C232.831 246.487 232.316 243.263 227.692 240.509C223.068 237.756 220.119 237.797 215.19 235.165C210.261 232.532 206.255 231.158 202.474 232.306C198.693 233.454 199.244 235.621 202.032 237.452C204.821 239.283 209.62 241.706 212.939 244.226C216.257 246.745 219.52 248.204 219.448 252.469C219.377 256.735 218.624 265.507 217.57 272.633C216.516 279.76 214.991 285.52 215.513 286.301C216.035 287.082 219.093 287.492 221.053 283.536C223.013 279.58 225.729 265.085 225.729 265.085C225.729 265.085 226.923 275.203 227.356 282.163C227.79 289.123 227.923 294.437 228.09 295.924C228.257 297.411 233.207 296.363 234.098 291.137C234.988 285.911 234.254 270.347 234.254 270.347C234.254 270.347 238.214 277.499 240.762 282.136C243.31 286.773 246.451 293.082 247.495 294.644C248.539 296.207 251.714 293.533 251.043 289.352C250.371 285.17 245.217 274.86 245.217 274.86C245.217 274.86 251.549 281.737 252.669 282.422C253.789 283.107 257.235 282.632 256.141 278.007C255.41 274.916 253.485 272.917 248.405 266.885C243.326 260.853 243.435 258.393 241.873 255.646C239.822 252.036 238.168 252.041 235.924 249.705Z" fill="#FFA8A7"/>
<path d="M223.006 251.878C228.124 254.262 233.228 252.039 233.951 250.77C233.544 254.318 226.417 256.265 223.006 251.878Z" fill="#F28F8F"/>
<path d="M256.23 280.671C255.736 281.315 254.271 281.498 252.989 280.387C251.703 279.272 248.564 275.612 247.139 273.92C245.714 272.228 240.829 266.234 240.829 266.234L245.216 274.859C245.216 274.859 251.548 281.736 252.668 282.421C253.517 282.94 255.699 282.788 256.23 280.671Z" fill="#F28F8F"/>
<path d="M235.276 102.072C228.171 124.156 209.333 141.806 148.986 152.431L152.178 167.961L128.953 155.16C128.547 155.236 83.4042 156.904 61.7006 145.841C34.1776 131.813 28.8809 99.2417 44.6369 76.3034C58.2102 56.5418 78.4647 44.5359 122.161 36.6929C169.655 28.1673 207.229 34.7021 224.392 52.1682C239.299 67.3388 239.06 90.311 235.276 102.072Z" fill="white"/>
<path d="M152.178 169C151.974 169 151.769 168.951 151.587 168.85L128.644 156.204C123.424 156.403 81.7595 157.256 61.1442 146.748C48.8199 140.467 40.0639 130.005 36.4896 117.292C32.5485 103.274 35.1663 88.1343 43.6706 75.7516C58.343 54.3869 80.2888 43.1498 121.941 35.6726C168.659 27.2868 207.279 33.1937 225.243 51.4755C240.443 66.9432 240.226 90.3828 236.371 102.365C227.776 129.086 202.811 143.868 150.315 153.254L153.3 167.769C153.383 168.172 153.198 168.582 152.828 168.815C152.633 168.938 152.406 169 152.178 169ZM129.017 154.108C129.203 154.108 129.357 154.168 129.544 154.27L150.587 165.869L147.863 152.621C147.747 152.059 148.152 151.517 148.768 151.409C213.462 140.02 228.053 120.825 234.181 101.779C237.892 90.2441 238.12 67.6978 223.542 52.8613C206.12 35.132 168.304 29.4709 122.381 37.7125C81.4275 45.0642 59.9013 56.0381 45.604 76.8546C37.4293 88.7567 34.9122 103.308 38.6987 116.776C42.1184 128.933 50.4836 138.934 62.2578 144.935C83.5623 155.794 128.408 154.16 128.824 154.127C128.895 154.114 128.957 154.108 129.017 154.108Z" fill="#455A64"/>
<path d="M208.419 65.5204L237.269 37.5532L260 44.159L208.419 65.5204Z" fill="#BA68C8"/>
<path d="M205.459 60.9555L224.911 36.3584L210.64 37.7442L205.459 60.9555Z" fill="#BA68C8"/>
<path d="M212.755 68.1431L252.349 61.6968L247.166 72.7144L212.755 68.1431Z" fill="#BA68C8"/>
<path d="M65.2978 127.504L36.4491 155.47L13.7183 148.864L65.2978 127.504Z" fill="#BA68C8"/>
<path d="M68.2595 132.068L48.8069 156.664L63.0766 155.28L68.2595 132.068Z" fill="#BA68C8"/>
<path d="M60.9635 124.88L21.3691 131.326L26.5508 120.308L60.9635 124.88Z" fill="#BA68C8"/>
<path d="M214.427 96.6964C214.318 96.6964 214.231 96.5938 214.222 96.4671C214.097 94.6227 212.478 93.1473 210.454 93.0337C210.315 93.0261 210.202 92.9464 210.202 92.847C210.202 92.7476 210.315 92.6679 210.454 92.6603C212.478 92.5467 214.097 91.0713 214.222 89.2269C214.231 89.1002 214.318 88.9976 214.427 88.9976C214.536 88.9976 214.624 89.1002 214.632 89.2269C214.757 91.0713 216.376 92.5467 218.401 92.6603C218.54 92.6679 218.652 92.7476 218.652 92.847C218.652 92.9464 218.54 93.0261 218.401 93.0337C216.376 93.1473 214.757 94.6227 214.632 96.4671C214.624 96.5927 214.536 96.6964 214.427 96.6964Z" fill="#BA68C8"/>
<path d="M176.453 55.6685C176.342 55.6685 176.252 55.5637 176.243 55.4338C176.116 53.5478 174.46 52.0386 172.39 51.9228C172.248 51.9152 172.132 51.8333 172.132 51.7317C172.132 51.6302 172.247 51.5483 172.39 51.5406C174.46 51.4249 176.116 49.9157 176.243 48.0297C176.252 47.9009 176.342 47.7949 176.453 47.7949C176.565 47.7949 176.655 47.8998 176.663 48.0297C176.79 49.9157 178.446 51.4249 180.517 51.5406C180.658 51.5483 180.774 51.6302 180.774 51.7317C180.774 51.8333 180.659 51.9152 180.518 51.9228C178.448 52.0386 176.791 53.5478 176.664 55.4338C176.653 55.5626 176.565 55.6685 176.453 55.6685Z" fill="#BA68C8"/>
<path d="M56.9784 99.9761C56.8645 99.9761 56.7722 99.8691 56.7638 99.7359C56.6331 97.804 54.9371 96.2588 52.8179 96.1398C52.6729 96.1321 52.5542 96.048 52.5542 95.9443C52.5542 95.8406 52.6729 95.7565 52.8179 95.7488C54.9383 95.6298 56.6343 94.0846 56.765 92.1538C56.7734 92.0217 56.8657 91.9136 56.9795 91.9136C57.0934 91.9136 57.1857 92.0217 57.1941 92.1538C57.3248 94.0856 59.0208 95.6309 61.14 95.7499C61.285 95.7576 61.4037 95.8416 61.4037 95.9454C61.4037 96.0491 61.285 96.1332 61.14 96.1409C59.0196 96.2599 57.3236 97.8051 57.1929 99.7359C57.1833 99.868 57.0922 99.9761 56.9784 99.9761Z" fill="#BA68C8"/>
<path d="M60.0283 115.142C59.9492 115.142 59.8869 115.067 59.8809 114.976C59.791 113.644 58.6223 112.579 57.16 112.497C57.0605 112.491 56.9778 112.433 56.9778 112.361C56.9778 112.289 57.0593 112.232 57.16 112.227C58.6211 112.145 59.791 111.079 59.8809 109.748C59.8869 109.656 59.9504 109.582 60.0283 109.582C60.1074 109.582 60.1697 109.656 60.1769 109.747C60.2668 111.078 61.4367 112.144 62.8978 112.226C62.9985 112.231 63.08 112.289 63.08 112.36C63.08 112.432 62.9985 112.489 62.8978 112.496C61.4367 112.577 60.2668 113.642 60.1769 114.975C60.1697 115.067 60.1062 115.142 60.0283 115.142Z" fill="#BA68C8"/>
<path d="M165.853 58.3566C165.8 58.3566 165.756 58.3053 165.752 58.243C165.689 57.3279 164.886 56.5962 163.882 56.5394C163.813 56.5351 163.757 56.4957 163.757 56.4466C163.757 56.3975 163.813 56.3581 163.882 56.3538C164.886 56.297 165.689 55.5653 165.752 54.6502C165.756 54.5879 165.8 54.5366 165.853 54.5366C165.907 54.5366 165.951 54.5879 165.955 54.6502C166.018 55.5653 166.821 56.297 167.825 56.3538C167.894 56.3581 167.95 56.3975 167.95 56.4466C167.95 56.4957 167.894 56.5351 167.825 56.5394C166.821 56.5962 166.018 57.3279 165.955 58.243C165.951 58.3063 165.907 58.3566 165.853 58.3566Z" fill="#BA68C8"/>
<path d="M221.222 102.893C221.172 102.893 221.132 102.846 221.127 102.788C221.07 101.94 220.324 101.261 219.393 101.208C219.329 101.205 219.277 101.168 219.277 101.122C219.277 101.076 219.328 101.04 219.392 101.036C220.323 100.983 221.069 100.304 221.126 99.4565C221.13 99.3986 221.17 99.3506 221.221 99.3506C221.271 99.3506 221.311 99.3975 221.315 99.4565C221.373 100.305 222.117 100.984 223.05 101.037C223.113 101.04 223.166 101.077 223.166 101.123C223.166 101.169 223.115 101.205 223.05 101.209C222.119 101.262 221.373 101.941 221.315 102.789C221.313 102.846 221.272 102.893 221.222 102.893Z" fill="#BA68C8"/>
<path d="M46.5577 107.416C46.5157 107.416 46.4821 107.377 46.4785 107.328C46.4306 106.617 45.8061 106.048 45.0258 106.004C44.9719 106.001 44.9287 105.971 44.9287 105.932C44.9287 105.894 44.9719 105.864 45.0258 105.86C45.8061 105.817 46.4306 105.248 46.4785 104.537C46.4821 104.488 46.5157 104.448 46.5577 104.448C46.5996 104.448 46.6332 104.488 46.6368 104.537C46.6847 105.248 47.3092 105.817 48.0895 105.86C48.1434 105.864 48.1866 105.894 48.1866 105.932C48.1866 105.971 48.1434 106.001 48.0895 106.004C47.3092 106.048 46.6847 106.617 46.6368 107.328C46.6344 107.376 46.5996 107.416 46.5577 107.416Z" fill="#BA68C8"/>
<path d="M340.575 76.162C340.787 75.913 341.059 75.773 341.396 75.745C341.732 75.719 342.024 75.811 342.273 76.022L346.56 79.665C346.81 79.878 346.947 80.151 346.976 80.484C347.003 80.822 346.911 81.114 346.699 81.364L343.78 84.799C343.567 85.049 343.294 85.188 342.959 85.212C342.623 85.242 342.332 85.149 342.082 84.937L337.795 81.294C337.546 81.083 337.408 80.81 337.38 80.473C337.352 80.138 337.445 79.846 337.657 79.596L340.575 76.162ZM356.328 57.621C356.539 57.372 356.812 57.234 357.148 57.206C357.485 57.178 357.778 57.271 358.026 57.482L362.313 61.125C362.563 61.338 362.7 61.611 362.727 61.946C362.756 62.284 362.662 62.576 362.451 62.824L349.992 77.486C349.78 77.735 349.507 77.874 349.171 77.9C348.835 77.928 348.544 77.836 348.294 77.623L344.007 73.98C343.759 73.769 343.62 73.496 343.592 73.16C343.563 72.824 343.657 72.532 343.868 72.283L356.328 57.621Z" fill="#BA68C8"/>
<path d="M328.007 63.0699C328.06 62.7469 328.223 62.4879 328.497 62.2909C328.773 62.0949 329.07 62.0239 329.391 62.0779L334.941 62.9979C335.265 63.0519 335.525 63.2159 335.719 63.4889C335.916 63.7649 335.988 64.0619 335.935 64.3839L335.197 68.8329C335.143 69.1569 334.981 69.4149 334.705 69.6109C334.433 69.8069 334.134 69.8779 333.811 69.8239L328.261 68.9039C327.938 68.8509 327.68 68.6879 327.483 68.4129C327.286 68.1399 327.216 67.8419 327.268 67.5189L328.007 63.0699ZM331.985 39.0689C332.038 38.7469 332.202 38.4879 332.476 38.2909C332.751 38.0949 333.048 38.0229 333.369 38.0769L338.919 38.9969C339.243 39.0509 339.503 39.2149 339.697 39.4879C339.896 39.7619 339.965 40.0599 339.912 40.3819L336.765 59.3639C336.713 59.6869 336.55 59.9469 336.273 60.1419C336.001 60.3379 335.703 60.4089 335.379 60.3549L329.829 59.4349C329.508 59.3809 329.249 59.2179 329.051 58.9449C328.856 58.6709 328.784 58.3739 328.838 58.0499L331.985 39.0689Z" fill="#BA68C8"/>
<g opacity="0.3">
<path d="M328.007 63.0699C328.06 62.7469 328.223 62.4879 328.497 62.2909C328.773 62.0949 329.07 62.0239 329.391 62.0779L334.941 62.9979C335.265 63.0519 335.525 63.2159 335.719 63.4889C335.916 63.7649 335.988 64.0619 335.935 64.3839L335.197 68.8329C335.143 69.1569 334.981 69.4149 334.705 69.6109C334.433 69.8069 334.134 69.8779 333.811 69.8239L328.261 68.9039C327.938 68.8509 327.68 68.6879 327.483 68.4129C327.286 68.1399 327.216 67.8419 327.268 67.5189L328.007 63.0699ZM331.985 39.0689C332.038 38.7469 332.202 38.4879 332.476 38.2909C332.751 38.0949 333.048 38.0229 333.369 38.0769L338.919 38.9969C339.243 39.0509 339.503 39.2149 339.697 39.4879C339.896 39.7619 339.965 40.0599 339.912 40.3819L336.765 59.3639C336.713 59.6869 336.55 59.9469 336.273 60.1419C336.001 60.3379 335.703 60.4089 335.379 60.3549L329.829 59.4349C329.508 59.3809 329.249 59.2179 329.051 58.9449C328.856 58.6709 328.784 58.3739 328.838 58.0499L331.985 39.0689Z" fill="white"/>
</g>
<path d="M443.881 178.619C443.622 178.632 443.382 178.455 443.325 178.192L439.358 160.073C439.328 159.932 439.354 159.784 439.431 159.663C439.509 159.541 439.632 159.456 439.772 159.426L445.771 158.113C446.07 158.044 446.354 158.235 446.419 158.527L450.386 176.646C450.416 176.787 450.39 176.935 450.313 177.056C450.235 177.177 450.112 177.263 449.972 177.293L443.973 178.606C443.941 178.614 443.911 178.617 443.881 178.619ZM440.537 160.371L444.27 177.428L449.207 176.348L445.474 159.291L440.537 160.371ZM451.401 174.772C451.142 174.785 450.902 174.608 450.845 174.345L447.436 158.776C447.413 158.67 447.422 158.558 447.462 158.458C448.482 155.904 450.04 151.86 450.152 151.183C450.256 150.558 449.521 147.938 449.208 146.82C449.077 146.354 448.975 145.989 448.936 145.81C448.887 145.585 448.874 145.017 449.812 144.609C450.993 144.093 453.379 144.02 454.768 146.017C456.288 148.2 456.97 150.243 456.992 152.732L464.644 151.057C466.692 150.601 468.062 152.273 468.339 153.539C468.578 154.63 468.28 155.484 467.939 156.052C468.648 156.349 469.425 156.996 469.697 158.24C469.926 159.278 469.573 160.642 468.527 161.449C468.768 161.798 469.036 162.323 469.199 163.065C469.404 164.009 468.767 165.681 467.643 166.379C467.825 166.732 468.035 167.228 468.165 167.818C468.495 169.328 467.48 171.259 465.263 171.746L451.493 174.76C451.461 174.767 451.431 174.771 451.401 174.772ZM448.534 158.706L451.79 173.58L465.029 170.683C466.541 170.352 467.322 169.054 467.102 168.051C466.896 167.106 466.425 166.45 466.42 166.444C466.313 166.296 466.287 166.102 466.352 165.931C466.416 165.76 466.564 165.632 466.743 165.592C467.575 165.41 468.276 163.941 468.136 163.296C467.894 162.19 467.38 161.764 467.359 161.747C467.212 161.629 467.134 161.44 467.158 161.253C467.181 161.066 467.297 160.902 467.469 160.824C468.463 160.371 468.812 159.275 468.635 158.472C468.306 156.972 467.03 156.924 466.976 156.922C466.755 156.917 466.56 156.78 466.482 156.574C466.403 156.368 466.456 156.135 466.616 155.984C466.839 155.774 467.545 154.994 467.277 153.771C467.129 153.091 466.338 151.798 464.877 152.117L456.554 153.939C456.388 153.977 456.216 153.932 456.089 153.825C455.959 153.717 455.888 153.556 455.894 153.387C455.991 150.83 455.388 148.811 453.874 146.637C453.139 145.581 452.058 145.402 451.478 145.389C450.75 145.372 450.218 145.586 450.032 145.719C450.08 145.906 450.159 146.187 450.254 146.524C450.841 148.618 451.357 150.562 451.225 151.36C451.066 152.315 448.985 157.572 448.534 158.706Z" fill="#E0E0E0"/>
<path d="M60.8949 414.443L53.7709 412.884C53.6039 412.848 53.4579 412.746 53.3659 412.602C53.2749 412.458 53.2429 412.282 53.2799 412.115L57.9899 390.599C58.0669 390.251 58.4039 390.024 58.7589 390.107L65.8829 391.666C66.0499 391.702 66.1959 391.804 66.2879 391.948C66.3789 392.092 66.4109 392.268 66.3749 392.435L61.6649 413.951C61.5959 414.263 61.3119 414.473 61.0039 414.458C60.9669 414.456 60.9309 414.452 60.8949 414.443ZM59.1109 391.506L54.6779 411.761L60.5409 413.044L64.9739 392.789L59.1109 391.506ZM51.9649 409.875L35.6129 406.296C32.9799 405.718 31.7739 403.425 32.1659 401.632C32.3199 400.931 32.5689 400.342 32.7859 399.923C31.4499 399.094 30.6939 397.108 30.9379 395.987C31.1309 395.106 31.4489 394.483 31.7359 394.068C30.4929 393.109 30.0739 391.489 30.3459 390.257C30.6689 388.78 31.5919 388.012 32.4339 387.659C32.0289 386.985 31.6749 385.971 31.9589 384.675C32.2889 383.171 33.9159 381.185 36.3479 381.727L45.4349 383.716C45.4619 380.761 46.2719 378.334 48.0759 375.742C49.7259 373.371 52.5599 373.458 53.9619 374.07C55.0759 374.555 55.0599 375.229 55.0019 375.497C54.9559 375.709 54.8349 376.142 54.6789 376.696C54.3069 378.025 53.4339 381.136 53.5579 381.878C53.6899 382.681 55.5419 387.484 56.7519 390.517C56.7999 390.636 56.8099 390.769 56.7829 390.895L52.7349 409.383C52.6669 409.695 52.3819 409.905 52.0739 409.89C52.0369 409.888 52.0019 409.884 51.9649 409.875ZM52.2819 382.091C52.1249 381.144 52.7369 378.834 53.4349 376.348C53.5479 375.947 53.6409 375.614 53.6989 375.392C53.4779 375.233 52.8459 374.979 51.9809 375C51.2919 375.016 50.0089 375.228 49.1359 376.482C47.3389 379.064 46.6219 381.461 46.7369 384.498C46.7449 384.698 46.6589 384.889 46.5049 385.018C46.3539 385.145 46.1499 385.199 45.9529 385.154L36.0689 382.99C34.3339 382.61 33.3949 384.146 33.2189 384.954C32.9009 386.406 33.7389 387.332 34.0039 387.582C34.1939 387.762 34.2569 388.039 34.1629 388.283C34.0699 388.527 33.8389 388.69 33.5759 388.696C33.5119 388.698 31.9959 388.755 31.6059 390.536C31.3959 391.489 31.8099 392.791 32.9909 393.329C33.1949 393.421 33.3319 393.616 33.3599 393.838C33.3889 394.06 33.2959 394.285 33.1209 394.425C33.0959 394.445 32.4859 394.95 32.1979 396.264C32.0319 397.029 32.8649 398.774 33.8519 398.99C34.0649 399.036 34.2399 399.189 34.3169 399.392C34.3949 399.595 34.3639 399.825 34.2369 400.002C34.2309 400.01 33.6719 400.789 33.4269 401.911C33.1669 403.103 34.0939 404.643 35.8889 405.037L51.6109 408.478L55.4779 390.814C54.9419 389.464 52.4709 383.221 52.2819 382.091Z" fill="#E0E0E0"/>
<path d="M428.496 282.209C428.496 282.209 427.202 274.909 427.245 273.844C427.287 272.779 429.425 268.963 429.748 268.24C430.071 267.517 426.757 265.712 424.502 267.849C422.247 269.986 421.188 272.115 420.73 274.838L412.371 271.105C410.607 270.317 409.157 271.622 408.713 272.616C408.087 274.017 408.648 275.189 408.979 275.662C408.979 275.662 407.125 275.322 406.257 277.265C405.773 278.35 406.016 279.868 407.161 280.704C407.161 280.704 406.336 281.095 405.73 282.45C405.326 283.354 405.815 285.415 406.99 285.94C406.99 285.94 406.265 286.592 405.781 287.677C405.196 288.988 405.876 290.863 407.684 291.671C409.492 292.479 421.514 297.847 421.514 297.847L428.496 282.209Z" fill="#E0E0E0"/>
<path d="M422.556 300.845L428.591 303.535L436.709 285.336L430.686 282.646L422.556 300.845ZM425.651 299.357C425.651 298.702 426.175 298.179 426.829 298.179C427.483 298.179 428.007 298.703 428.007 299.357C428.007 300.012 427.483 300.535 426.829 300.535C426.175 300.535 425.651 300.012 425.651 299.357Z" fill="#E0E0E0"/>
<path d="M45.4817 181.03C45.4817 181.03 46.7757 173.73 46.7327 172.665C46.6907 171.6 44.5527 167.784 44.2297 167.061C43.9067 166.338 47.2207 164.533 49.4767 166.67C51.7317 168.807 52.7907 170.936 53.2487 173.659L61.6077 169.926C63.3717 169.138 64.8217 170.443 65.2657 171.437C65.8917 172.838 65.3307 174.01 64.9997 174.483C64.9997 174.483 66.8537 174.143 67.7217 176.086C68.2067 177.171 67.9627 178.689 66.8187 179.525C66.8187 179.525 67.6437 179.916 68.2487 181.272C68.6527 182.176 68.1637 184.237 66.9887 184.762C66.9887 184.762 67.7137 185.414 68.1977 186.499C68.7827 187.81 68.1027 189.685 66.2947 190.493C64.4867 191.301 52.4647 196.669 52.4647 196.669L45.4817 181.03Z" fill="#E0E0E0"/>
<path d="M43.2918 181.468L37.2688 184.158L45.3868 202.357L51.4218 199.667L43.2918 181.468ZM47.1488 199.357C46.4938 199.357 45.9708 198.833 45.9708 198.179C45.9708 197.525 46.4948 197.001 47.1488 197.001C47.8038 197.001 48.3268 197.525 48.3268 198.179C48.3268 198.833 47.8038 199.357 47.1488 199.357Z" fill="#E0E0E0"/>
<path d="M65.2756 89V62.8182H75.7585C77.6847 62.8182 79.2912 63.1037 80.5781 63.6747C81.8651 64.2457 82.8324 65.0384 83.4801 66.0526C84.1278 67.0582 84.4517 68.2173 84.4517 69.5298C84.4517 70.5526 84.2472 71.4517 83.8381 72.2273C83.429 72.9943 82.8665 73.625 82.1506 74.1193C81.4432 74.6051 80.6335 74.9503 79.7216 75.1548V75.4105C80.7188 75.4531 81.652 75.7344 82.5213 76.2543C83.3991 76.7741 84.1108 77.5028 84.6562 78.4403C85.2017 79.3693 85.4744 80.4773 85.4744 81.7642C85.4744 83.1534 85.1293 84.3935 84.4389 85.4844C83.7571 86.5668 82.7472 87.4233 81.4091 88.054C80.071 88.6847 78.4219 89 76.4616 89H65.2756ZM70.8111 84.4744H75.3239C76.8665 84.4744 77.9915 84.1804 78.6989 83.5923C79.4063 82.9957 79.7599 82.2031 79.7599 81.2145C79.7599 80.4901 79.5852 79.8509 79.2358 79.2969C78.8864 78.7429 78.3878 78.3082 77.7401 77.9929C77.1009 77.6776 76.3381 77.5199 75.4517 77.5199H70.8111V84.4744ZM70.8111 73.7741H74.9148C75.6733 73.7741 76.3466 73.642 76.9347 73.3778C77.5313 73.1051 78 72.7216 78.3409 72.2273C78.6903 71.733 78.8651 71.1406 78.8651 70.4503C78.8651 69.5043 78.5284 68.7415 77.8551 68.1619C77.1903 67.5824 76.2443 67.2926 75.017 67.2926H70.8111V73.7741ZM88.9741 89V69.3636H94.2539V72.7898H94.4585C94.8164 71.571 95.4173 70.6506 96.261 70.0284C97.1048 69.3977 98.0763 69.0824 99.1758 69.0824C99.4485 69.0824 99.7425 69.0994 100.058 69.1335C100.373 69.1676 100.65 69.2145 100.889 69.2741V74.1065C100.633 74.0298 100.279 73.9616 99.8278 73.902C99.3761 73.8423 98.9627 73.8125 98.5877 73.8125C97.7866 73.8125 97.0707 73.9872 96.44 74.3366C95.8178 74.6776 95.3235 75.1548 94.957 75.7685C94.5991 76.3821 94.4201 77.0895 94.4201 77.8906V89H88.9741ZM111.739 89.3835C109.719 89.3835 107.981 88.9744 106.523 88.1562C105.075 87.3295 103.958 86.1619 103.174 84.6534C102.39 83.1364 101.998 81.3423 101.998 79.2713C101.998 77.2514 102.39 75.4787 103.174 73.9531C103.958 72.4276 105.062 71.2386 106.485 70.3864C107.917 69.5341 109.596 69.108 111.522 69.108C112.817 69.108 114.023 69.3168 115.14 69.7344C116.265 70.1435 117.245 70.7614 118.08 71.5881C118.924 72.4148 119.58 73.4545 120.049 74.7074C120.518 75.9517 120.752 77.4091 120.752 79.0795V80.5753H104.171V77.2003H115.626C115.626 76.4162 115.455 75.7216 115.114 75.1165C114.773 74.5114 114.3 74.0384 113.695 73.6974C113.099 73.348 112.404 73.1733 111.612 73.1733C110.785 73.1733 110.052 73.3651 109.413 73.7486C108.782 74.1236 108.288 74.6307 107.93 75.2699C107.572 75.9006 107.388 76.6037 107.38 77.3793V80.5881C107.38 81.5597 107.559 82.3991 107.917 83.1065C108.283 83.8139 108.799 84.3594 109.464 84.7429C110.129 85.1264 110.917 85.3182 111.829 85.3182C112.434 85.3182 112.988 85.233 113.491 85.0625C113.994 84.892 114.424 84.6364 114.782 84.2955C115.14 83.9545 115.413 83.5369 115.6 83.0426L120.637 83.375C120.381 84.5852 119.857 85.642 119.065 86.5455C118.281 87.4403 117.266 88.1392 116.022 88.642C114.786 89.1364 113.359 89.3835 111.739 89.3835ZM129.906 89.3707C128.653 89.3707 127.536 89.1534 126.556 88.7188C125.576 88.2756 124.8 87.6236 124.229 86.7628C123.667 85.8935 123.386 84.8111 123.386 83.5156C123.386 82.4247 123.586 81.5085 123.987 80.767C124.387 80.0256 124.933 79.429 125.623 78.9773C126.313 78.5256 127.097 78.1847 127.975 77.9545C128.862 77.7244 129.79 77.5625 130.762 77.4688C131.904 77.3494 132.825 77.2386 133.523 77.1364C134.222 77.0256 134.729 76.8636 135.045 76.6506C135.36 76.4375 135.518 76.1222 135.518 75.7045V75.6278C135.518 74.8182 135.262 74.1918 134.751 73.7486C134.248 73.3054 133.532 73.0838 132.603 73.0838C131.623 73.0838 130.843 73.3011 130.263 73.7358C129.684 74.1619 129.3 74.6989 129.113 75.3466L124.076 74.9375C124.332 73.7443 124.835 72.7131 125.585 71.8438C126.335 70.9659 127.302 70.2926 128.487 69.8239C129.68 69.3466 131.06 69.108 132.629 69.108C133.719 69.108 134.763 69.2358 135.761 69.4915C136.766 69.7472 137.657 70.1435 138.433 70.6804C139.217 71.2173 139.835 71.9077 140.286 72.7514C140.738 73.5866 140.964 74.5881 140.964 75.7557V89H135.799V86.277H135.646C135.33 86.8906 134.908 87.4318 134.38 87.9006C133.852 88.3608 133.217 88.723 132.475 88.9872C131.734 89.2429 130.877 89.3707 129.906 89.3707ZM131.465 85.6122C132.266 85.6122 132.974 85.4545 133.587 85.1392C134.201 84.8153 134.683 84.3807 135.032 83.8352C135.381 83.2898 135.556 82.6719 135.556 81.9815V79.8977C135.386 80.0085 135.151 80.1108 134.853 80.2045C134.563 80.2898 134.235 80.3707 133.869 80.4474C133.502 80.5156 133.136 80.5795 132.769 80.6392C132.403 80.6903 132.07 80.7372 131.772 80.7798C131.133 80.8736 130.575 81.0227 130.097 81.2273C129.62 81.4318 129.249 81.7088 128.985 82.0582C128.721 82.3991 128.589 82.8253 128.589 83.3366C128.589 84.0781 128.857 84.6449 129.394 85.0369C129.94 85.4205 130.63 85.6122 131.465 85.6122ZM150.124 83.3494L150.136 76.8168H150.929L157.219 69.3636H163.47L155.02 79.233H153.729L150.124 83.3494ZM145.189 89V62.8182H150.635V89H145.189ZM157.462 89L151.683 80.4474L155.314 76.5994L163.841 89H157.462ZM166.142 89V69.3636H171.588V89H166.142ZM168.878 66.8324C168.068 66.8324 167.374 66.5639 166.794 66.027C166.223 65.4815 165.938 64.8295 165.938 64.071C165.938 63.321 166.223 62.6776 166.794 62.1406C167.374 61.5952 168.068 61.3224 168.878 61.3224C169.688 61.3224 170.378 61.5952 170.949 62.1406C171.528 62.6776 171.818 63.321 171.818 64.071C171.818 64.8295 171.528 65.4815 170.949 66.027C170.378 66.5639 169.688 66.8324 168.878 66.8324ZM181.397 77.6477V89H175.951V69.3636H181.141V72.8281H181.371C181.806 71.6861 182.534 70.7827 183.557 70.1179C184.58 69.4446 185.82 69.108 187.277 69.108C188.641 69.108 189.83 69.4062 190.844 70.0028C191.858 70.5994 192.647 71.4517 193.209 72.5597C193.772 73.6591 194.053 74.9716 194.053 76.4972V89H188.607V77.4688C188.615 76.267 188.309 75.3295 187.686 74.6562C187.064 73.9744 186.208 73.6335 185.117 73.6335C184.384 73.6335 183.736 73.7912 183.174 74.1065C182.62 74.4219 182.185 74.8821 181.87 75.4872C181.563 76.0838 181.405 76.804 181.397 77.6477ZM207.192 96.7727C205.428 96.7727 203.915 96.5298 202.653 96.044C201.401 95.5668 200.403 94.9148 199.662 94.0881C198.92 93.2614 198.439 92.3324 198.217 91.3011L203.254 90.6236C203.408 91.0156 203.651 91.3821 203.983 91.723C204.315 92.0639 204.754 92.3366 205.3 92.5412C205.854 92.7543 206.527 92.8608 207.32 92.8608C208.504 92.8608 209.48 92.571 210.247 91.9915C211.023 91.4205 211.411 90.4616 211.411 89.1151V85.5227H211.18C210.942 86.0682 210.584 86.5838 210.107 87.0696C209.629 87.5554 209.016 87.9517 208.266 88.2585C207.516 88.5653 206.621 88.7188 205.581 88.7188C204.107 88.7188 202.764 88.3778 201.554 87.696C200.352 87.0057 199.393 85.9531 198.678 84.5384C197.97 83.1151 197.616 81.3168 197.616 79.1435C197.616 76.919 197.979 75.0611 198.703 73.5696C199.428 72.0781 200.391 70.9616 201.592 70.2202C202.803 69.4787 204.128 69.108 205.568 69.108C206.668 69.108 207.588 69.2955 208.33 69.6705C209.071 70.0369 209.668 70.4972 210.119 71.0511C210.58 71.5966 210.933 72.1335 211.18 72.6619H211.385V69.3636H216.793V89.1918C216.793 90.8622 216.384 92.2599 215.565 93.3849C214.747 94.5099 213.614 95.3537 212.165 95.9162C210.724 96.4872 209.067 96.7727 207.192 96.7727ZM207.307 84.6278C208.185 84.6278 208.926 84.4105 209.531 83.9759C210.145 83.5327 210.614 82.902 210.938 82.0838C211.27 81.2571 211.436 80.2685 211.436 79.1179C211.436 77.9673 211.274 76.9702 210.95 76.1264C210.626 75.2741 210.158 74.6136 209.544 74.1449C208.93 73.6761 208.185 73.4418 207.307 73.4418C206.412 73.4418 205.658 73.6847 205.044 74.1705C204.43 74.6477 203.966 75.3125 203.651 76.1648C203.335 77.017 203.178 78.0014 203.178 79.1179C203.178 80.2514 203.335 81.2315 203.651 82.0582C203.974 82.8764 204.439 83.5114 205.044 83.9631C205.658 84.4062 206.412 84.6278 207.307 84.6278ZM87.1747 106.818V133H82.3935L71.0028 116.521H70.8111V133H65.2756V106.818H70.1335L81.4347 123.284H81.6648V106.818H87.1747ZM100.595 133.384C98.5749 133.384 96.8363 132.974 95.3789 132.156C93.93 131.33 92.8136 130.162 92.0295 128.653C91.2454 127.136 90.8533 125.342 90.8533 123.271C90.8533 121.251 91.2454 119.479 92.0295 117.953C92.8136 116.428 93.9173 115.239 95.3406 114.386C96.7724 113.534 98.4513 113.108 100.377 113.108C101.673 113.108 102.879 113.317 103.995 113.734C105.12 114.143 106.1 114.761 106.936 115.588C107.779 116.415 108.436 117.455 108.904 118.707C109.373 119.952 109.608 121.409 109.608 123.08V124.575H93.0266V121.2H104.481C104.481 120.416 104.311 119.722 103.97 119.116C103.629 118.511 103.156 118.038 102.551 117.697C101.954 117.348 101.26 117.173 100.467 117.173C99.6403 117.173 98.9073 117.365 98.2681 117.749C97.6374 118.124 97.1431 118.631 96.7852 119.27C96.4272 119.901 96.244 120.604 96.2354 121.379V124.588C96.2354 125.56 96.4144 126.399 96.7724 127.107C97.1388 127.814 97.6545 128.359 98.3192 128.743C98.984 129.126 99.7724 129.318 100.684 129.318C101.289 129.318 101.843 129.233 102.346 129.062C102.849 128.892 103.279 128.636 103.637 128.295C103.995 127.955 104.268 127.537 104.456 127.043L109.493 127.375C109.237 128.585 108.713 129.642 107.92 130.545C107.136 131.44 106.122 132.139 104.877 132.642C103.642 133.136 102.214 133.384 100.595 133.384ZM116.895 133L111.551 113.364H117.061L120.103 126.557H120.282L123.453 113.364H128.86L132.082 126.48H132.248L135.24 113.364H140.737L135.406 133H129.64L126.265 120.651H126.022L122.647 133H116.895ZM159.98 118.963L154.994 119.27C154.909 118.844 154.726 118.46 154.445 118.119C154.163 117.77 153.793 117.493 153.332 117.288C152.881 117.075 152.339 116.969 151.709 116.969C150.865 116.969 150.153 117.148 149.574 117.506C148.994 117.855 148.705 118.324 148.705 118.912C148.705 119.381 148.892 119.777 149.267 120.101C149.642 120.425 150.286 120.685 151.197 120.881L154.751 121.597C156.661 121.989 158.084 122.619 159.021 123.489C159.959 124.358 160.428 125.5 160.428 126.915C160.428 128.202 160.048 129.331 159.29 130.303C158.54 131.274 157.509 132.033 156.196 132.578C154.892 133.115 153.388 133.384 151.683 133.384C149.084 133.384 147.013 132.842 145.47 131.76C143.936 130.669 143.037 129.186 142.773 127.311L148.129 127.03C148.291 127.822 148.683 128.428 149.305 128.845C149.928 129.254 150.724 129.459 151.696 129.459C152.651 129.459 153.418 129.276 153.997 128.909C154.585 128.534 154.884 128.053 154.892 127.464C154.884 126.97 154.675 126.565 154.266 126.25C153.857 125.926 153.226 125.679 152.374 125.509L148.973 124.831C147.055 124.447 145.628 123.783 144.69 122.837C143.761 121.891 143.297 120.685 143.297 119.219C143.297 117.957 143.638 116.871 144.32 115.959C145.01 115.047 145.977 114.344 147.222 113.849C148.474 113.355 149.94 113.108 151.619 113.108C154.099 113.108 156.051 113.632 157.474 114.68C158.906 115.729 159.741 117.156 159.98 118.963Z" fill="black"/>
</g>
<defs>
<clipPath id="clip0_6_7">
<rect width="500" height="500" fill="white"/>
</clipPath>
</defs>
</svg>
